<svg width="482" height="296" viewBox="0 0 482 296" fill="none" xmlns="http://www.w3.org/2000/svg">
<path d="M0.62 8.724H19.468L27.524 43.684L35.428 8.724H52.604L60.66 43.684L68.564 8.724H86.576L69.172 62H51.008L43.636 30.156L36.036 62H17.872L0.62 8.724ZM105.483 19.82C119.771 19.82 128.967 28.18 128.967 41.176C128.967 54.172 119.771 62.608 105.483 62.608C91.1954 62.608 81.9994 54.172 81.9994 41.176C81.9994 28.18 91.1954 19.82 105.483 19.82ZM105.483 33.348C101.683 33.348 99.2514 36.54 99.2514 41.404C99.2514 46.268 101.683 49.46 105.483 49.46C109.283 49.46 111.715 46.268 111.715 41.404C111.715 36.54 109.283 33.348 105.483 33.348ZM151.421 26.508C154.309 22.176 158.717 19.668 164.113 19.668V35.096C156.437 33.956 151.421 36.692 151.421 42.164V62H134.321V20.428H151.421V26.508ZM169.435 5.608H186.535V62H169.435V5.608ZM221.854 5.608H238.954V62H221.854V57.82C219.194 60.936 215.546 62.608 211.29 62.608C199.738 62.608 192.214 54.096 192.214 40.948C192.214 28.104 199.51 19.82 210.834 19.82C215.318 19.82 219.118 21.568 221.854 24.684V5.608ZM215.698 49.46C219.422 49.46 221.854 46.268 221.854 41.404C221.854 36.54 219.422 33.348 215.698 33.348C211.898 33.348 209.466 36.54 209.466 41.404C209.466 46.268 211.898 49.46 215.698 49.46ZM253.731 8.724C257.835 8.724 261.483 11.384 261.483 16.4C261.483 18.756 260.647 20.732 259.431 22.48L252.819 32.056H244.915L248.867 22.404C246.815 21.036 245.903 18.832 245.903 16.476C245.903 11.916 249.171 8.724 253.731 8.724ZM298.544 35.476C292.388 32.436 287.676 30.916 284.484 30.916C283.04 30.916 282.128 31.448 282.128 32.284C282.128 36.16 303.712 34.64 303.712 48.624C303.712 57.212 296.34 62.76 284.864 62.76C277.188 62.76 270.348 60.784 264.572 56.832L269.74 46.192C275.288 49.612 280.456 51.36 285.092 51.36C286.688 51.36 287.676 50.904 287.676 50.144C287.676 46.496 266.548 48.092 266.548 34.032C266.548 25.292 273.768 19.668 284.864 19.668C291.476 19.668 297.936 21.416 304.168 24.912L298.544 35.476ZM41.204 193.988C41.204 205.92 33.376 212.76 21.14 212.76C12.552 212.76 5.788 209.416 0.392 203.488L8.372 192.088C12.552 196.268 16.808 198.092 19.468 198.092C21.9 198.092 23.496 196.648 23.496 193.608V172.632H5.408V158.724H41.204V193.988ZM68.8935 169.82C83.1815 169.82 92.3775 178.18 92.3775 191.176C92.3775 204.172 83.1815 212.608 68.8935 212.608C54.6055 212.608 45.4095 204.172 45.4095 191.176C45.4095 178.18 54.6055 169.82 68.8935 169.82ZM68.8935 183.348C65.0935 183.348 62.6615 186.54 62.6615 191.404C62.6615 196.268 65.0935 199.46 68.8935 199.46C72.6935 199.46 75.1255 196.268 75.1255 191.404C75.1255 186.54 72.6935 183.348 68.8935 183.348ZM125.775 169.82C137.327 169.82 144.851 178.332 144.851 191.48C144.851 204.324 137.555 212.608 126.231 212.608C121.747 212.608 117.947 210.86 115.211 207.744V212H98.1108V155.608H115.211V174.608C117.871 171.492 121.519 169.82 125.775 169.82ZM121.367 199.08C125.167 199.08 127.599 195.888 127.599 191.024C127.599 186.16 125.167 182.968 121.367 182.968C117.643 182.968 115.211 186.16 115.211 191.024C115.211 195.888 117.643 199.08 121.367 199.08ZM205.606 177.648C200.21 174.684 191.926 171.416 187.29 171.416C185.314 171.416 184.022 172.024 184.022 173.62C184.022 180.308 211.61 176.128 211.61 195.432C211.61 207.288 201.198 212.532 189.19 212.532C179.918 212.532 169.582 209.416 162.514 204.02L169.05 190.796C174.522 195.356 183.946 199.08 189.342 199.08C191.926 199.08 193.598 198.244 193.598 196.344C193.598 189.428 166.01 193.988 166.01 175.292C166.01 164.652 174.978 157.964 188.81 157.964C197.246 157.964 205.986 160.472 211.99 164.272L205.606 177.648ZM225.143 149.908C230.235 149.908 233.807 153.48 233.807 158.572C233.807 163.664 230.235 167.236 225.143 167.236C220.051 167.236 216.479 163.664 216.479 158.572C216.479 153.48 220.051 149.908 225.143 149.908ZM216.555 170.428H233.655V212H216.555V170.428ZM268.764 198.472L271.652 210.176C268.916 211.772 264.204 212.76 259.796 212.76C250.296 212.836 244.14 207.288 244.14 198.624V183.5H238.44V172.708H244.14V161.08H261.164V172.708H270.892V183.5H261.164V196.04C261.164 198.244 262.456 199.612 264.508 199.536C265.496 199.536 267.168 199.08 268.764 198.472ZM296.121 169.82C310.637 169.82 319.149 179.7 318.237 195.052H291.181C292.321 198.32 294.753 199.992 298.097 199.992C300.985 199.992 303.949 198.7 306.533 196.268L315.425 205.008C311.017 209.872 304.633 212.608 296.577 212.608C282.365 212.608 273.929 204.248 273.929 191.404C273.929 178.256 282.745 169.82 296.121 169.82ZM301.137 187.148C301.365 183.728 299.237 181.22 296.273 181.22C293.309 181.22 291.485 183.652 290.801 187.148H301.137Z" fill="#1A3E32"/>
<path d="M44.7 102.648C39.304 99.684 31.02 96.416 26.384 96.416C24.408 96.416 23.116 97.024 23.116 98.62C23.116 105.308 50.704 101.128 50.704 120.432C50.704 132.288 40.292 137.532 28.284 137.532C19.012 137.532 8.676 134.416 1.608 129.02L8.144 115.796C13.616 120.356 23.04 124.08 28.436 124.08C31.02 124.08 32.692 123.244 32.692 121.344C32.692 114.428 5.104 118.988 5.104 100.292C5.104 89.652 14.072 82.964 27.904 82.964C36.34 82.964 45.08 85.472 51.084 89.272L44.7 102.648ZM112.193 94.668C120.781 94.668 126.861 100.9 126.861 110.476V137H109.761V115.416C109.761 111.92 107.861 109.716 105.049 109.716C101.857 109.716 99.8048 112.376 99.8048 116.404V137H82.7048V115.416C82.7048 111.92 80.8048 109.716 77.9928 109.716C74.8008 109.716 72.7488 112.376 72.7488 116.404V137H55.6488V95.428H72.7488V101.28C75.5608 97.1 79.7408 94.668 85.1368 94.668C91.4448 94.668 96.3848 98.012 98.5888 103.56C101.249 97.936 105.961 94.668 112.193 94.668ZM154.314 94.668C166.322 94.668 173.466 100.292 173.466 110.096V137H156.67V132.516C154.238 135.86 150.286 137.76 144.966 137.76C136.15 137.76 131.058 132.592 131.058 124.688C131.058 116.48 136.606 112.148 147.17 111.996H156.67C156.594 109.108 154.39 107.436 150.21 107.436C147.094 107.436 142.306 108.348 137.594 110.096L133.794 98.696C140.862 96.112 148.158 94.668 154.314 94.668ZM150.894 126.892C153.098 126.892 155.302 125.752 156.67 123.7V119.9H150.742C148.386 119.9 147.094 121.04 147.094 123.244C147.094 125.524 148.462 126.892 150.894 126.892ZM197.807 101.508C200.695 97.176 205.103 94.668 210.499 94.668V110.096C202.823 108.956 197.807 111.692 197.807 117.164V137H180.707V95.428H197.807V101.508ZM242.194 123.472L245.082 135.176C242.346 136.772 237.634 137.76 233.226 137.76C223.726 137.836 217.57 132.288 217.57 123.624V108.5H211.87V97.708H217.57V86.08H234.594V97.708H244.322V108.5H234.594V121.04C234.594 123.244 235.886 124.612 237.938 124.536C238.926 124.536 240.598 124.08 242.194 123.472ZM269.551 94.82C284.067 94.82 292.579 104.7 291.667 120.052H264.611C265.751 123.32 268.183 124.992 271.527 124.992C274.415 124.992 277.379 123.7 279.963 121.268L288.855 130.008C284.447 134.872 278.063 137.608 270.007 137.608C255.795 137.608 247.359 129.248 247.359 116.404C247.359 103.256 256.175 94.82 269.551 94.82ZM274.567 112.148C274.795 108.728 272.667 106.22 269.703 106.22C266.739 106.22 264.915 108.652 264.231 112.148H274.567ZM327.786 110.476C321.63 107.436 316.918 105.916 313.726 105.916C312.282 105.916 311.37 106.448 311.37 107.284C311.37 111.16 332.954 109.64 332.954 123.624C332.954 132.212 325.582 137.76 314.106 137.76C306.43 137.76 299.59 135.784 293.814 131.832L298.982 121.192C304.53 124.612 309.698 126.36 314.334 126.36C315.93 126.36 316.918 125.904 316.918 125.144C316.918 121.496 295.79 123.092 295.79 109.032C295.79 100.292 303.01 94.668 314.106 94.668C320.718 94.668 327.178 96.416 333.41 99.912L327.786 110.476ZM365.768 123.472L368.656 135.176C365.92 136.772 361.208 137.76 356.8 137.76C347.3 137.836 341.144 132.288 341.144 123.624V108.5H335.444V97.708H341.144V86.08H358.168V97.708H367.896V108.5H358.168V121.04C358.168 123.244 359.46 124.612 361.512 124.536C362.5 124.536 364.172 124.08 365.768 123.472Z" fill="#16730F"/>
<path d="M2.696 237.8H9.816V238.984H3.976V243H9.208V244.168H3.976V249H2.696V237.8ZM12.1436 237.32C12.6076 237.32 12.9596 237.672 12.9596 238.168C12.9596 238.648 12.6076 239.016 12.1436 239.016C11.6796 239.016 11.3276 238.648 11.3276 238.168C11.3276 237.672 11.6796 237.32 12.1436 237.32ZM11.5356 240.584H12.7676V249H11.5356V240.584ZM20.3133 240.536C22.3293 240.536 23.5133 241.768 23.5133 243.816V249H22.2653V244.136C22.2653 242.632 21.3693 241.736 19.8813 241.736C18.2173 241.752 17.1933 242.856 17.0493 244.488V249H15.8013V240.584H17.0493V242.44C17.6413 241.16 18.7773 240.552 20.3133 240.536ZM32.7973 237.128H34.0453V249H32.7973V247.192C32.1733 248.376 31.0213 249.064 29.5173 249.064C27.1173 249.064 25.4533 247.288 25.4533 244.776C25.4533 242.264 27.1173 240.52 29.5013 240.52C31.0053 240.52 32.1733 241.208 32.7973 242.408V237.128ZM29.7573 247.992C31.5333 247.992 32.7973 246.664 32.7973 244.808C32.7973 242.952 31.5333 241.608 29.7573 241.608C27.9653 241.608 26.7013 242.952 26.7013 244.808C26.7013 246.664 27.9653 247.992 29.7573 247.992ZM46.3353 245.656C46.3353 247.832 45.1353 249.048 43.1353 249.048C41.8873 249.048 40.8153 248.472 40.0312 247.464L40.6713 246.472C41.3753 247.32 42.2553 247.784 43.1193 247.784C44.3513 247.784 45.0393 247.032 45.0393 245.624V238.984H41.0393V237.8H46.3353V245.656ZM52.7096 240.536C55.2056 240.536 56.9816 242.28 56.9816 244.776C56.9816 247.304 55.2056 249.048 52.7096 249.048C50.2136 249.048 48.4376 247.304 48.4376 244.776C48.4376 242.28 50.2136 240.536 52.7096 240.536ZM52.7096 241.64C50.9496 241.64 49.6856 242.936 49.6856 244.792C49.6856 246.68 50.9496 247.96 52.7096 247.96C54.4696 247.96 55.7336 246.68 55.7336 244.792C55.7336 242.936 54.4696 241.64 52.7096 241.64ZM63.7523 240.536C66.1363 240.536 67.8003 242.296 67.8003 244.808C67.8003 247.304 66.1683 249.048 63.7843 249.048C62.2803 249.048 61.1283 248.36 60.5043 247.192V249H59.2563V237.128H60.5043V242.392C61.1283 241.224 62.2803 240.536 63.7523 240.536ZM63.5283 247.944C65.2883 247.944 66.5363 246.616 66.5363 244.776C66.5363 242.952 65.2883 241.608 63.5283 241.608C61.7523 241.608 60.5043 242.936 60.5043 244.776C60.5043 246.632 61.7523 247.944 63.5283 247.944ZM74.4368 242.248C73.7808 241.832 72.9328 241.576 72.1488 241.576C71.2048 241.576 70.4848 241.912 70.4848 242.712C70.4848 244.616 75.1888 243.64 75.1888 246.664C75.1888 248.312 73.7168 249.048 72.1008 249.048C70.9008 249.048 69.6688 248.632 68.8688 247.864L69.3488 246.952C70.0688 247.624 71.1568 248.024 72.1488 248.024C73.1408 248.024 73.9408 247.64 73.9568 246.792C74.0048 244.744 69.2848 245.784 69.3008 242.808C69.3008 241.208 70.6928 240.52 72.2288 240.52C73.2368 240.52 74.2128 240.824 74.9168 241.288L74.4368 242.248ZM81.8054 237.8H88.9254V238.984H83.0854V243H88.3174V244.168H83.0854V249H81.8054V237.8ZM97.093 249H95.877V247.688C95.205 248.6 94.133 249.048 92.789 249.048C91.045 249.048 89.925 247.944 89.925 246.504C89.925 245.032 91.093 244.104 93.077 244.088H95.845V243.56C95.845 242.328 95.077 241.576 93.589 241.576C92.661 241.576 91.797 241.928 90.917 242.552L90.389 241.672C91.477 240.952 92.389 240.536 93.829 240.536C95.909 240.536 97.061 241.64 97.077 243.432L97.093 249ZM93.029 248.008C94.453 248.008 95.541 247.304 95.861 246.104V245.08H93.237C91.829 245.08 91.093 245.512 91.093 246.456C91.093 247.384 91.845 248.008 93.029 248.008ZM104.327 242.248C103.671 241.832 102.823 241.576 102.039 241.576C101.095 241.576 100.375 241.912 100.375 242.712C100.375 244.616 105.079 243.64 105.079 246.664C105.079 248.312 103.607 249.048 101.991 249.048C100.791 249.048 99.5594 248.632 98.7594 247.864L99.2394 246.952C99.9594 247.624 101.047 248.024 102.039 248.024C103.031 248.024 103.831 247.64 103.847 246.792C103.895 244.744 99.1754 245.784 99.1914 242.808C99.1914 241.208 100.583 240.52 102.119 240.52C103.127 240.52 104.103 240.824 104.807 241.288L104.327 242.248ZM111.129 247.464L111.481 248.424C110.889 248.824 110.249 249.048 109.577 249.048C108.345 249.064 107.433 248.328 107.433 246.664V241.816H106.217V240.84H107.433V238.632H108.665V240.84H111.337V241.816H108.665V246.456C108.665 247.48 109.065 247.896 109.785 247.896C110.217 247.88 110.665 247.736 111.129 247.464ZM116.567 240.536C119.287 240.536 120.631 242.408 120.503 245.256H113.623C113.831 246.92 115.031 248.008 116.679 248.008C117.719 248.008 118.631 247.624 119.287 246.936L119.975 247.656C119.175 248.536 117.991 249.048 116.583 249.048C114.103 249.048 112.391 247.304 112.391 244.792C112.391 242.28 114.119 240.552 116.567 240.536ZM113.623 244.264H119.383C119.303 242.632 118.215 241.576 116.567 241.576C114.951 241.576 113.799 242.632 113.623 244.264ZM123.893 242.456C124.453 241.224 125.493 240.552 126.917 240.536V241.752C125.141 241.72 124.037 242.824 123.893 244.52V249H122.645V240.584H123.893V242.456ZM128.678 247.528C129.094 247.528 129.446 247.832 129.446 248.328C129.446 248.584 129.35 248.792 129.206 249L128.454 250.136H127.75L128.278 248.984C128.038 248.856 127.926 248.6 127.926 248.328C127.926 247.864 128.246 247.528 128.678 247.528ZM142.657 239.928C141.649 239.272 140.465 239 139.569 239C138.129 239 137.185 239.576 137.185 240.536C137.185 243.448 143.489 241.928 143.473 245.992C143.473 247.848 141.825 249.048 139.425 249.048C137.793 249.048 136.193 248.344 135.137 247.336L135.713 246.232C136.753 247.224 138.177 247.8 139.441 247.8C141.057 247.8 142.065 247.144 142.065 246.056C142.081 243.064 135.777 244.648 135.777 240.632C135.777 238.872 137.329 237.752 139.649 237.752C140.945 237.752 142.273 238.168 143.201 238.792L142.657 239.928ZM156.726 240.536C158.694 240.536 159.862 241.768 159.862 243.816V249H158.614V244.136C158.614 242.616 157.734 241.72 156.278 241.72C154.534 241.768 153.526 243.032 153.526 244.856V249H152.262V244.136C152.262 242.616 151.398 241.72 149.926 241.72C148.198 241.768 147.158 243.032 147.158 244.856V249H145.926V240.584H147.158V242.488C147.718 241.176 148.854 240.552 150.374 240.536C151.958 240.536 153.046 241.336 153.398 242.728C153.926 241.256 155.11 240.552 156.726 240.536ZM169.077 249H167.861V247.688C167.189 248.6 166.117 249.048 164.773 249.048C163.029 249.048 161.909 247.944 161.909 246.504C161.909 245.032 163.077 244.104 165.061 244.088H167.829V243.56C167.829 242.328 167.061 241.576 165.573 241.576C164.645 241.576 163.781 241.928 162.901 242.552L162.373 241.672C163.461 240.952 164.373 240.536 165.813 240.536C167.893 240.536 169.045 241.64 169.061 243.432L169.077 249ZM165.013 248.008C166.437 248.008 167.525 247.304 167.845 246.104V245.08H165.221C163.813 245.08 163.077 245.512 163.077 246.456C163.077 247.384 163.829 248.008 165.013 248.008ZM173.112 242.456C173.672 241.224 174.712 240.552 176.136 240.536V241.752C174.36 241.72 173.256 242.824 173.112 244.52V249H171.864V240.584H173.112V242.456ZM181.817 247.464L182.169 248.424C181.577 248.824 180.937 249.048 180.265 249.048C179.033 249.064 178.121 248.328 178.121 246.664V241.816H176.905V240.84H178.121V238.632H179.353V240.84H182.025V241.816H179.353V246.456C179.353 247.48 179.753 247.896 180.473 247.896C180.905 247.88 181.353 247.736 181.817 247.464ZM187.254 240.536C189.974 240.536 191.318 242.408 191.19 245.256H184.31C184.518 246.92 185.718 248.008 187.366 248.008C188.406 248.008 189.318 247.624 189.974 246.936L190.662 247.656C189.862 248.536 188.678 249.048 187.27 249.048C184.79 249.048 183.078 247.304 183.078 244.792C183.078 242.28 184.806 240.552 187.254 240.536ZM184.31 244.264H190.07C189.99 242.632 188.902 241.576 187.254 241.576C185.638 241.576 184.486 242.632 184.31 244.264ZM194.581 242.456C195.141 241.224 196.181 240.552 197.605 240.536V241.752C195.829 241.72 194.725 242.824 194.581 244.52V249H193.333V240.584H194.581V242.456ZM199.366 247.528C199.782 247.528 200.134 247.832 200.134 248.328C200.134 248.584 200.038 248.792 199.894 249L199.142 250.136H198.438L198.966 248.984C198.726 248.856 198.614 248.6 198.614 248.328C198.614 247.864 198.934 247.528 199.366 247.528ZM215.345 249L214.081 246.136H207.985L206.737 249H205.377L210.401 237.8H211.729L216.737 249H215.345ZM208.513 244.952H213.569L211.025 239.192L208.513 244.952ZM222.829 240.536C224.845 240.536 226.029 241.768 226.029 243.816V249H224.781V244.136C224.781 242.632 223.885 241.736 222.397 241.736C220.733 241.752 219.709 242.856 219.565 244.488V249H218.317V240.584H219.565V242.44C220.157 241.16 221.293 240.552 222.829 240.536ZM235.313 237.128H236.561V249H235.313V247.192C234.689 248.376 233.537 249.064 232.033 249.064C229.633 249.064 227.969 247.288 227.969 244.776C227.969 242.264 229.633 240.52 232.017 240.52C233.521 240.52 234.689 241.208 235.313 242.408V237.128ZM232.273 247.992C234.049 247.992 235.313 246.664 235.313 244.808C235.313 242.952 234.049 241.608 232.273 241.608C230.481 241.608 229.217 242.952 229.217 244.808C229.217 246.664 230.481 247.992 232.273 247.992ZM242.643 237.8H244.019L247.091 247.56L250.131 237.8H251.411L254.483 247.56L257.523 237.8H258.851L255.091 249H253.779L250.755 239.512L247.699 249H246.387L242.643 237.8ZM260.941 237.32C261.405 237.32 261.757 237.672 261.757 238.168C261.757 238.648 261.405 239.016 260.941 239.016C260.477 239.016 260.125 238.648 260.125 238.168C260.125 237.672 260.477 237.32 260.941 237.32ZM260.333 240.584H261.565V249H260.333V240.584ZM268.598 247.464L268.95 248.424C268.358 248.824 267.718 249.048 267.046 249.048C265.814 249.064 264.902 248.328 264.902 246.664V241.816H263.686V240.84H264.902V238.632H266.134V240.84H268.806V241.816H266.134V246.456C266.134 247.48 266.534 247.896 267.254 247.896C267.686 247.88 268.134 247.736 268.598 247.464ZM275.441 240.536C277.457 240.536 278.641 241.768 278.641 243.816V249H277.392V244.136C277.392 242.632 276.497 241.736 275.009 241.736C273.217 241.752 272.161 243.032 272.161 244.872V249H270.913V237.128H272.161V242.472C272.737 241.16 273.889 240.552 275.441 240.536ZM285.993 237.8H293.113V238.984H287.273V243H292.505V244.168H287.273V249H285.993V237.8ZM298.161 240.536C300.881 240.536 302.225 242.408 302.097 245.256H295.217C295.424 246.92 296.625 248.008 298.273 248.008C299.313 248.008 300.225 247.624 300.881 246.936L301.569 247.656C300.769 248.536 299.585 249.048 298.177 249.048C295.697 249.048 293.985 247.304 293.985 244.792C293.985 242.28 295.713 240.552 298.161 240.536ZM295.217 244.264H300.977C300.897 242.632 299.809 241.576 298.161 241.576C296.545 241.576 295.393 242.632 295.217 244.264ZM302.517 240.584H303.829L306.325 247.736L308.773 240.584H310.085L312.565 247.736L315.029 240.584H316.325L313.205 249H311.909L309.429 242.104L306.965 249H305.669L302.517 240.584ZM320.864 240.536C323.584 240.536 324.928 242.408 324.8 245.256H317.92C318.128 246.92 319.328 248.008 320.976 248.008C322.016 248.008 322.928 247.624 323.584 246.936L324.272 247.656C323.472 248.536 322.288 249.048 320.88 249.048C318.4 249.048 316.688 247.304 316.688 244.792C316.688 242.28 318.416 240.552 320.864 240.536ZM317.92 244.264H323.68C323.6 242.632 322.512 241.576 320.864 241.576C319.248 241.576 318.096 242.632 317.92 244.264ZM328.19 242.456C328.75 241.224 329.79 240.552 331.214 240.536V241.752C329.438 241.72 328.334 242.824 328.19 244.52V249H326.942V240.584H328.19V242.456ZM10.808 261.328C9.944 260.464 8.728 259.936 7.496 259.936C4.968 259.936 2.936 261.904 2.936 264.384C2.936 266.848 4.968 268.848 7.496 268.848C8.728 268.848 9.928 268.336 10.808 267.504L11.592 268.352C10.488 269.392 8.984 270.048 7.432 270.048C4.2 270.048 1.64 267.552 1.64 264.384C1.64 261.248 4.232 258.768 7.48 258.768C9.016 258.768 10.504 259.392 11.576 260.4L10.808 261.328ZM13.8031 258.128H15.0511V270H13.8031V258.128ZM18.7843 258.32C19.2483 258.32 19.6003 258.672 19.6003 259.168C19.6003 259.648 19.2483 260.016 18.7843 260.016C18.3203 260.016 17.9683 259.648 17.9683 259.168C17.9683 258.672 18.3203 258.32 18.7843 258.32ZM18.1763 261.584H19.4083V270H18.1763V261.584ZM28.3299 263.648C27.6899 263.024 26.8419 262.656 25.8179 262.656C24.0739 262.656 22.8259 263.936 22.8259 265.792C22.8259 267.664 24.0739 268.944 25.8179 268.944C26.9219 268.944 27.8339 268.56 28.4259 267.856L29.1459 268.592C28.3939 269.504 27.2259 270.048 25.7699 270.048C23.3219 270.048 21.5939 268.304 21.5939 265.792C21.5939 263.296 23.3379 261.536 25.7699 261.536C27.1299 261.536 28.2499 262 29.0179 262.784L28.3299 263.648ZM37.3946 270L34.5146 265.728L32.7386 267.568V270H31.4906V258.128H32.7386V265.952L37.0746 261.584H38.5466L35.3946 264.832L38.8826 270H37.3946ZM44.9368 263.248C44.2808 262.832 43.4328 262.576 42.6488 262.576C41.7048 262.576 40.9848 262.912 40.9848 263.712C40.9848 265.616 45.6888 264.64 45.6888 267.664C45.6888 269.312 44.2168 270.048 42.6008 270.048C41.4008 270.048 40.1688 269.632 39.3688 268.864L39.8488 267.952C40.5688 268.624 41.6568 269.024 42.6488 269.024C43.6408 269.024 44.4408 268.64 44.4568 267.792C44.5048 265.744 39.7848 266.784 39.8008 263.808C39.8008 262.208 41.1928 261.52 42.7288 261.52C43.7368 261.52 44.7128 261.824 45.4168 262.288L44.9368 263.248ZM47.8188 268.496C48.2508 268.496 48.5868 268.848 48.5868 269.312C48.5868 269.776 48.2508 270.128 47.8188 270.128C47.3708 270.128 47.0348 269.776 47.0348 269.312C47.0348 268.848 47.3708 268.496 47.8188 268.496ZM60.2129 258.8C62.4689 258.8 63.8289 259.84 63.8289 261.6C63.8289 262.912 63.0769 263.856 61.7649 264.128C63.3809 264.368 64.3249 265.424 64.3249 266.96C64.3249 268.864 62.8209 270 60.2929 270H55.4929V258.8H60.2129ZM60.1489 263.648C61.6529 263.648 62.5329 262.976 62.5329 261.792C62.5329 260.64 61.6529 259.984 60.1489 259.984H56.7729V263.648H60.1489ZM60.1489 268.816C61.9729 268.816 63.0289 268.096 63.0289 266.8C63.0289 265.552 61.9729 264.832 60.1489 264.832H56.7729V268.816H60.1489ZM70.098 261.536C72.818 261.536 74.162 263.408 74.034 266.256H67.154C67.362 267.92 68.562 269.008 70.21 269.008C71.25 269.008 72.162 268.624 72.818 267.936L73.506 268.656C72.706 269.536 71.522 270.048 70.114 270.048C67.634 270.048 65.922 268.304 65.922 265.792C65.922 263.28 67.65 261.552 70.098 261.536ZM67.154 265.264H72.914C72.834 263.632 71.746 262.576 70.098 262.576C68.482 262.576 67.33 263.632 67.154 265.264ZM87.0789 260.928C86.0709 260.272 84.8869 260 83.9909 260C82.5509 260 81.6069 260.576 81.6069 261.536C81.6069 264.448 87.9109 262.928 87.8949 266.992C87.8949 268.848 86.2469 270.048 83.8469 270.048C82.2149 270.048 80.6149 269.344 79.5589 268.336L80.1349 267.232C81.1749 268.224 82.5989 268.8 83.8629 268.8C85.4789 268.8 86.4869 268.144 86.4869 267.056C86.5029 264.064 80.1989 265.648 80.1989 261.632C80.1989 259.872 81.7509 258.752 84.0709 258.752C85.3669 258.752 86.6949 259.168 87.6229 259.792L87.0789 260.928ZM93.6761 261.536C96.3961 261.536 97.7401 263.408 97.6121 266.256H90.7321C90.9401 267.92 92.1401 269.008 93.7881 269.008C94.8281 269.008 95.7401 268.624 96.3961 267.936L97.0841 268.656C96.2841 269.536 95.1001 270.048 93.6921 270.048C91.2121 270.048 89.5001 268.304 89.5001 265.792C89.5001 263.28 91.2281 261.552 93.6761 261.536ZM90.7321 265.264H96.4921C96.4121 263.632 95.3241 262.576 93.6761 262.576C92.0601 262.576 90.9081 263.632 90.7321 265.264ZM103.082 261.536C105.802 261.536 107.146 263.408 107.018 266.256H100.138C100.346 267.92 101.546 269.008 103.194 269.008C104.234 269.008 105.146 268.624 105.802 267.936L106.49 268.656C105.69 269.536 104.506 270.048 103.098 270.048C100.618 270.048 98.9064 268.304 98.9064 265.792C98.9064 263.28 100.634 261.552 103.082 261.536ZM100.138 265.264H105.898C105.818 263.632 104.73 262.576 103.082 262.576C101.466 262.576 100.314 263.632 100.138 265.264ZM113.673 261.536C115.689 261.536 116.873 262.768 116.873 264.816V270H115.625V265.136C115.625 263.632 114.729 262.736 113.241 262.736C111.577 262.752 110.553 263.856 110.409 265.488V270H109.161V261.584H110.409V263.44C111.001 262.16 112.137 261.552 113.673 261.536ZM128.947 258.8C131.203 258.8 132.563 259.84 132.563 261.6C132.563 262.912 131.811 263.856 130.499 264.128C132.115 264.368 133.059 265.424 133.059 266.96C133.059 268.864 131.555 270 129.027 270H124.227V258.8H128.947ZM128.883 263.648C130.387 263.648 131.267 262.976 131.267 261.792C131.267 260.64 130.387 259.984 128.883 259.984H125.507V263.648H128.883ZM128.883 268.816C130.707 268.816 131.763 268.096 131.763 266.8C131.763 265.552 130.707 264.832 128.883 264.832H125.507V268.816H128.883ZM138.192 271.2C137.664 272.48 136.784 273.152 135.664 273.152C134.96 273.152 134.4 272.96 133.888 272.544L134.416 271.552C134.8 271.824 135.184 271.952 135.6 271.952C136.256 271.952 136.8 271.536 137.136 270.736L137.488 269.936L134 261.584H135.312L138.112 268.592L140.784 261.584H142.064L138.192 271.2ZM146.582 258.8H155.174V259.984H151.51V270H150.23V259.984H146.582V258.8ZM160.534 261.536C162.55 261.536 163.734 262.768 163.734 264.816V270H162.486V265.136C162.486 263.632 161.59 262.736 160.102 262.736C158.31 262.752 157.254 264.032 157.254 265.872V270H156.006V258.128H157.254V263.472C157.83 262.16 158.982 261.552 160.534 261.536ZM169.848 261.536C172.568 261.536 173.912 263.408 173.784 266.256H166.904C167.112 267.92 168.312 269.008 169.96 269.008C171 269.008 171.912 268.624 172.568 267.936L173.256 268.656C172.456 269.536 171.272 270.048 169.864 270.048C167.384 270.048 165.672 268.304 165.672 265.792C165.672 263.28 167.4 261.552 169.848 261.536ZM166.904 265.264H172.664C172.584 263.632 171.496 262.576 169.848 262.576C168.232 262.576 167.08 263.632 166.904 265.264ZM189.277 270H187.821L185.469 266.416C185.245 266.432 185.005 266.448 184.749 266.448H181.773V270H180.493V258.8H184.749C187.549 258.8 189.165 260.176 189.165 262.56C189.165 264.4 188.253 265.664 186.637 266.176L189.277 270ZM181.773 265.264H184.749C186.781 265.264 187.933 264.352 187.933 262.592C187.933 260.88 186.781 259.984 184.749 259.984H181.773V265.264ZM192.487 258.32C192.951 258.32 193.303 258.672 193.303 259.168C193.303 259.648 192.951 260.016 192.487 260.016C192.023 260.016 191.671 259.648 191.671 259.168C191.671 258.672 192.023 258.32 192.487 258.32ZM191.879 261.584H193.111V270H191.879V261.584ZM202.241 261.584H203.489V269.12C203.489 271.584 201.809 273.136 199.249 273.136C197.921 273.12 196.817 272.688 195.793 271.904L196.369 270.992C197.201 271.68 198.081 272.048 199.201 272.064C201.041 272.064 202.241 270.928 202.241 269.152V267.872C201.649 268.992 200.561 269.632 199.137 269.632C196.865 269.632 195.297 267.952 195.297 265.568C195.297 263.2 196.849 261.552 199.105 261.536C200.545 261.52 201.633 262.176 202.241 263.296V261.584ZM199.361 268.608C201.041 268.608 202.241 267.344 202.241 265.6C202.241 263.84 201.041 262.576 199.361 262.576C197.665 262.576 196.481 263.84 196.465 265.6C196.481 267.344 197.665 268.608 199.361 268.608ZM210.925 261.536C212.941 261.536 214.125 262.768 214.125 264.816V270H212.877V265.136C212.877 263.632 211.981 262.736 210.493 262.736C208.701 262.752 207.645 264.032 207.645 265.872V270H206.397V258.128H207.645V263.472C208.221 262.16 209.373 261.552 210.925 261.536ZM220.911 268.464L221.263 269.424C220.671 269.824 220.031 270.048 219.359 270.048C218.127 270.064 217.215 269.328 217.215 267.664V262.816H215.999V261.84H217.215V259.632H218.447V261.84H221.119V262.816H218.447V267.456C218.447 268.48 218.847 268.896 219.567 268.896C219.999 268.88 220.447 268.736 220.911 268.464ZM227.712 258.8H235.312V259.984H228.992V263.744H234.64V264.912H228.992V268.816H235.52V270H227.712V258.8ZM248.758 261.536C250.726 261.536 251.894 262.768 251.894 264.816V270H250.646V265.136C250.646 263.616 249.766 262.72 248.31 262.72C246.566 262.768 245.558 264.032 245.558 265.856V270H244.294V265.136C244.294 263.616 243.43 262.72 241.958 262.72C240.23 262.768 239.19 264.032 239.19 265.856V270H237.958V261.584H239.19V263.488C239.75 262.176 240.886 261.552 242.406 261.536C243.99 261.536 245.078 262.336 245.43 263.728C245.958 262.256 247.142 261.552 248.758 261.536ZM259.237 261.536C261.621 261.536 263.285 263.296 263.285 265.808C263.285 268.304 261.653 270.048 259.269 270.048C257.765 270.048 256.613 269.36 255.989 268.192V273.104H254.741V261.584H255.989V263.392C256.613 262.224 257.765 261.536 259.237 261.536ZM259.013 268.944C260.773 268.944 262.021 267.616 262.021 265.776C262.021 263.952 260.773 262.608 259.013 262.608C257.237 262.608 255.989 263.936 255.989 265.776C255.989 267.632 257.237 268.944 259.013 268.944ZM265.553 258.128H266.801V270H265.553V258.128ZM273.35 261.536C275.846 261.536 277.622 263.28 277.622 265.776C277.622 268.304 275.846 270.048 273.35 270.048C270.854 270.048 269.078 268.304 269.078 265.776C269.078 263.28 270.854 261.536 273.35 261.536ZM273.35 262.64C271.59 262.64 270.326 263.936 270.326 265.792C270.326 267.68 271.59 268.96 273.35 268.96C275.11 268.96 276.374 267.68 276.374 265.792C276.374 263.936 275.11 262.64 273.35 262.64ZM282.239 271.2C281.711 272.48 280.831 273.152 279.711 273.152C279.007 273.152 278.447 272.96 277.935 272.544L278.463 271.552C278.847 271.824 279.231 271.952 279.647 271.952C280.303 271.952 280.847 271.536 281.183 270.736L281.535 269.936L278.047 261.584H279.359L282.159 268.592L284.831 261.584H286.111L282.239 271.2ZM290.645 261.536C293.365 261.536 294.709 263.408 294.581 266.256H287.701C287.909 267.92 289.109 269.008 290.757 269.008C291.797 269.008 292.709 268.624 293.365 267.936L294.053 268.656C293.253 269.536 292.069 270.048 290.661 270.048C288.181 270.048 286.469 268.304 286.469 265.792C286.469 263.28 288.197 261.552 290.645 261.536ZM287.701 265.264H293.461C293.381 263.632 292.293 262.576 290.645 262.576C289.029 262.576 287.877 263.632 287.701 265.264ZM297.971 263.456C298.531 262.224 299.571 261.552 300.995 261.536V262.752C299.219 262.72 298.115 263.824 297.971 265.52V270H296.723V261.584H297.971V263.456ZM307.124 263.248C306.468 262.832 305.62 262.576 304.836 262.576C303.892 262.576 303.172 262.912 303.172 263.712C303.172 265.616 307.876 264.64 307.876 267.664C307.876 269.312 306.404 270.048 304.788 270.048C303.588 270.048 302.356 269.632 301.556 268.864L302.036 267.952C302.756 268.624 303.844 269.024 304.836 269.024C305.828 269.024 306.628 268.64 306.644 267.792C306.692 265.744 301.972 266.784 301.988 263.808C301.988 262.208 303.38 261.52 304.916 261.52C305.924 261.52 306.9 261.824 307.604 262.288L307.124 263.248ZM310.006 268.528C310.422 268.528 310.774 268.832 310.774 269.328C310.774 269.584 310.678 269.792 310.534 270L309.782 271.136H309.078L309.606 269.984C309.366 269.856 309.254 269.6 309.254 269.328C309.254 268.864 309.574 268.528 310.006 268.528ZM2.696 279.8H3.976V291H2.696V279.8ZM11.7039 282.536C13.7199 282.536 14.9039 283.768 14.9039 285.816V291H13.6559V286.136C13.6559 284.632 12.7599 283.736 11.2719 283.736C9.60788 283.752 8.58388 284.856 8.43988 286.488V291H7.19188V282.584H8.43988V284.44C9.03188 283.16 10.1679 282.552 11.7039 282.536ZM22.1399 284.248C21.4839 283.832 20.6359 283.576 19.8519 283.576C18.9079 283.576 18.1879 283.912 18.1879 284.712C18.1879 286.616 22.8919 285.64 22.8919 288.664C22.8919 290.312 21.4199 291.048 19.8039 291.048C18.6039 291.048 17.3719 290.632 16.5719 289.864L17.0519 288.952C17.7719 289.624 18.8599 290.024 19.8519 290.024C20.8439 290.024 21.6439 289.64 21.6599 288.792C21.7079 286.744 16.9879 287.784 17.0039 284.808C17.0039 283.208 18.3959 282.52 19.9319 282.52C20.9399 282.52 21.9159 282.824 22.6199 283.288L22.1399 284.248ZM28.9419 289.464L29.2939 290.424C28.7019 290.824 28.0619 291.048 27.3899 291.048C26.1579 291.064 25.2459 290.328 25.2459 288.664V283.816H24.0299V282.84H25.2459V280.632H26.4779V282.84H29.1499V283.816H26.4779V288.456C26.4779 289.48 26.8779 289.896 27.5979 289.896C28.0299 289.88 28.4779 289.736 28.9419 289.464ZM37.6243 291H36.4083V289.688C35.7363 290.6 34.6643 291.048 33.3203 291.048C31.5763 291.048 30.4563 289.944 30.4563 288.504C30.4563 287.032 31.6243 286.104 33.6083 286.088H36.3763V285.56C36.3763 284.328 35.6083 283.576 34.1203 283.576C33.1923 283.576 32.3283 283.928 31.4483 284.552L30.9203 283.672C32.0082 282.952 32.9203 282.536 34.3602 282.536C36.4403 282.536 37.5923 283.64 37.6083 285.432L37.6243 291ZM33.5603 290.008C34.9843 290.008 36.0723 289.304 36.3923 288.104V287.08H33.7682C32.3603 287.08 31.6243 287.512 31.6243 288.456C31.6243 289.384 32.3763 290.008 33.5603 290.008ZM44.9226 282.536C46.9386 282.536 48.1226 283.768 48.1226 285.816V291H46.8746V286.136C46.8746 284.632 45.9786 283.736 44.4906 283.736C42.8266 283.752 41.8026 284.856 41.6586 286.488V291H40.4106V282.584H41.6586V284.44C42.2506 283.16 43.3866 282.552 44.9226 282.536ZM54.9106 289.464L55.2626 290.424C54.6706 290.824 54.0306 291.048 53.3586 291.048C52.1266 291.064 51.2146 290.328 51.2146 288.664V283.816H49.9986V282.84H51.2146V280.632H52.4466V282.84H55.1186V283.816H52.4466V288.456C52.4466 289.48 52.8466 289.896 53.5666 289.896C53.9986 289.88 54.4466 289.736 54.9106 289.464ZM57.225 279.128H58.473V291H57.225V279.128ZM64.2861 292.2C63.7581 293.48 62.8781 294.152 61.7581 294.152C61.0541 294.152 60.4941 293.96 59.9821 293.544L60.5101 292.552C60.8941 292.824 61.2781 292.952 61.6941 292.952C62.3501 292.952 62.8941 292.536 63.2301 291.736L63.5821 290.936L60.0941 282.584H61.4061L64.2061 289.592L66.8781 282.584H68.1581L64.2861 292.2ZM69.5063 289.496C69.9383 289.496 70.2743 289.848 70.2743 290.312C70.2743 290.776 69.9383 291.128 69.5063 291.128C69.0583 291.128 68.7223 290.776 68.7223 290.312C68.7223 289.848 69.0583 289.496 69.5063 289.496Z" fill="#1A3E32"/>
</svg>
