<svg width="20" height="20" viewBox="0 0 20 20" fill="none" xmlns="http://www.w3.org/2000/svg">
<path d="M3.5498 9.18255V13.3242C3.5498 14.8409 3.5498 14.8409 4.98314 15.8076L8.9248 18.0826C9.51647 18.4242 10.4831 18.4242 11.0748 18.0826L15.0165 15.8076C16.4498 14.8409 16.4498 14.8409 16.4498 13.3242V9.18255C16.4498 7.66589 16.4498 7.66589 15.0165 6.69922L11.0748 4.42422C10.4831 4.08255 9.51647 4.08255 8.9248 4.42422L4.98314 6.69922C3.5498 7.66589 3.5498 7.66589 3.5498 9.18255Z" stroke="#F5F5F5" stroke-width="1.5" stroke-linecap="round" stroke-linejoin="round"/>
<path d="M14.5837 6.35768V4.16602C14.5837 2.49935 13.7503 1.66602 12.0837 1.66602H7.91699C6.25033 1.66602 5.41699 2.49935 5.41699 4.16602V6.29935" stroke="#F5F5F5" stroke-width="1.5" stroke-linecap="round" stroke-linejoin="round"/>
<path d="M10.5255 9.15781L11.0005 9.89948C11.0755 10.0161 11.2421 10.1328 11.3671 10.1661L12.2171 10.3828C12.7421 10.5161 12.8838 10.9661 12.5421 11.3828L11.9838 12.0578C11.9005 12.1661 11.8338 12.3578 11.8421 12.4911L11.8921 13.3661C11.9255 13.9078 11.5421 14.1828 11.0421 13.9828L10.2255 13.6578C10.1005 13.6078 9.89213 13.6078 9.76713 13.6578L8.95047 13.9828C8.45047 14.1828 8.06713 13.8995 8.10047 13.3661L8.15047 12.4911C8.1588 12.3578 8.09213 12.1578 8.0088 12.0578L7.45047 11.3828C7.1088 10.9661 7.25047 10.5161 7.77547 10.3828L8.62547 10.1661C8.7588 10.1328 8.92547 10.0078 8.99213 9.89948L9.46713 9.15781C9.76713 8.70781 10.2338 8.70781 10.5255 9.15781Z" stroke="#F5F5F5" stroke-width="1.5" stroke-linecap="round" stroke-linejoin="round"/>
</svg>
