<svg width="10" height="10" viewBox="0 0 10 10" fill="none" xmlns="http://www.w3.org/2000/svg">
<path d="M7.77923 7.77982L8.70423 7.31732V6.15898M5.92507 4.07565L5.00006 4.53815L5.92507 4.07565ZM5.00006 4.53815L4.07506 4.07565L5.00006 4.53815ZM5.00006 4.53815V5.69648V4.53815ZM8.70423 2.68399L7.77923 3.14649L8.70423 2.68399ZM8.70423 2.68399L7.77923 2.22149L8.70423 2.68399ZM8.70423 2.68399V3.84232V2.68399ZM5.92507 1.29648L5.00006 0.833984L4.07506 1.29648H5.92507ZM1.2959 2.68399L2.2209 2.22149L1.2959 2.68399ZM1.2959 2.68399L2.2209 3.14649L1.2959 2.68399ZM1.2959 2.68399V3.84232V2.68399ZM5.00006 9.16732L4.07506 8.70482L5.00006 9.16732ZM5.00006 9.16732L5.92507 8.70482L5.00006 9.16732ZM5.00006 9.16732V8.00898V9.16732ZM2.2209 7.77982L1.2959 7.31732V6.15898L2.2209 7.77982Z" stroke="#1A3E32" stroke-linecap="round" stroke-linejoin="round"/>
</svg>
