<svg width="30" height="31" viewBox="0 0 30 31" fill="none" xmlns="http://www.w3.org/2000/svg">
<g clip-path="url(#clip0_637_1208)">
<circle cx="15" cy="15.5" r="14.25" stroke="#16730F" stroke-width="1.5"/>
<path d="M19.5441 19.0188L19.7879 20.9937C19.8504 21.5125 19.2941 21.875 18.8504 21.6062L16.2316 20.05C15.9441 20.05 15.6629 20.0313 15.3879 19.9938C15.8504 19.45 16.1254 18.7625 16.1254 18.0187C16.1254 16.2437 14.5879 14.8063 12.6879 14.8063C11.9629 14.8063 11.2941 15.0125 10.7379 15.375C10.7191 15.2188 10.7129 15.0625 10.7129 14.9C10.7129 12.0562 13.1816 9.75 16.2316 9.75C19.2816 9.75 21.7504 12.0562 21.7504 14.9C21.7504 16.5875 20.8816 18.0813 19.5441 19.0188Z" stroke="#16730F" stroke-width="1.5" stroke-linecap="round" stroke-linejoin="round"/>
<path d="M16.125 18.0191C16.125 18.7629 15.85 19.4504 15.3875 19.9941C14.7688 20.7441 13.7875 21.2254 12.6875 21.2254L11.0562 22.1941C10.7812 22.3629 10.4312 22.1316 10.4687 21.8129L10.625 20.5816C9.7875 20.0004 9.25 19.0691 9.25 18.0191C9.25 16.9191 9.8375 15.9504 10.7375 15.3754C11.2938 15.0129 11.9625 14.8066 12.6875 14.8066C14.5875 14.8066 16.125 16.2441 16.125 18.0191Z" stroke="#16730F" stroke-width="1.5" stroke-linecap="round" stroke-linejoin="round"/>
</g>
<defs>
<clipPath id="clip0_637_1208">
<rect width="30" height="30" fill="white" transform="translate(0 0.5)"/>
</clipPath>
</defs>
</svg>
