<svg width="121" height="184" viewBox="0 0 121 184" fill="none" xmlns="http://www.w3.org/2000/svg">
<g clip-path="url(#clip0_1_2861)">
<path d="M121 175.457H0V0H88.8189L121 32.779V175.457Z" fill="#E0E0E0"/>
<path d="M121 32.779H88.8188V0L121 32.779Z" fill="#BCBEC0"/>
<path d="M80.0798 24.3262H10.4653V27.9408H80.0798V24.3262Z" fill="#939598"/>
<path d="M80.0798 34.0088H10.4653V37.6235H80.0798V34.0088Z" fill="#939598"/>
<path d="M110.54 43.6963H10.4653V47.311H110.54V43.6963Z" fill="#939598"/>
<path d="M110.54 53.3779H10.4653V56.9926H110.54V53.3779Z" fill="#939598"/>
<path d="M110.54 63.0664H10.4653V66.6811H110.54V63.0664Z" fill="#939598"/>
<path d="M110.54 72.7539H10.4653V76.3686H110.54V72.7539Z" fill="#939598"/>
<path d="M110.54 82.4355H10.4653V86.0502H110.54V82.4355Z" fill="#939598"/>
<path d="M110.54 92.124H10.4653V95.7387H110.54V92.124Z" fill="#939598"/>
<path d="M110.54 101.806H10.4653V105.42H110.54V101.806Z" fill="#939598"/>
<path d="M110.54 111.493H10.4653V115.108H110.54V111.493Z" fill="#939598"/>
<path d="M110.54 121.176H10.4653V124.79H110.54V121.176Z" fill="#939598"/>
<path d="M110.54 130.863H10.4653V134.478H110.54V130.863Z" fill="#939598"/>
<path d="M110.54 140.546H10.4653V144.161H110.54V140.546Z" fill="#939598"/>
<path d="M110.54 150.233H10.4653V153.848H110.54V150.233Z" fill="#939598"/>
<path d="M20.2242 164.142L13.3743 184L6.52441 164.142H20.2242Z" fill="#D1D3D4"/>
<path d="M15.6839 177.304L13.3744 184L11.0649 177.304H15.6839Z" fill="#58595B"/>
<path d="M19.8825 67.8593V53.7711C19.8825 50.0722 16.8892 47.0693 13.1895 47.0693C9.49552 47.0693 6.49658 50.0666 6.49658 53.7711V67.8593H19.8825Z" fill="#C16B57"/>
<path d="M14.9497 47.3165C14.3891 47.165 13.8005 47.0752 13.1895 47.0752C9.49552 47.0752 6.49658 50.0724 6.49658 53.7769V67.8651H11.9339C11.62 61.1129 9.93835 51.3073 14.9497 47.3165Z" fill="#D1D3D4"/>
<path d="M20.2524 68.7578H6.49658V164.142H20.2524V68.7578Z" fill="#F15A29"/>
<path d="M12.0292 68.7578H6.49658V164.142H12.0292V68.7578Z" fill="#D1D3D4"/>
<path d="M13.3743 184L6.52441 164.142H12.029L13.3743 184Z" fill="#D1D3D4"/>
<path d="M17.6684 103.315H14.9834V131.806H17.6684V103.315Z" fill="#D1D3D4"/>
<path d="M5.66135 69.4417C5.49879 69.4417 5.36426 69.3014 5.36426 69.1274V65.2489C5.36426 65.0749 5.49879 64.9346 5.66135 64.9346H21.0876C21.2502 64.9346 21.3847 65.0749 21.3847 65.2489V69.1274C21.3847 69.3014 21.2502 69.4417 21.0876 69.4417H5.66135Z" fill="#808285"/>
</g>
<defs>
<clipPath id="clip0_1_2861">
<rect width="121" height="184" fill="white"/>
</clipPath>
</defs>
</svg>
