<svg width="13" height="13" viewBox="0 0 13 13" fill="none" xmlns="http://www.w3.org/2000/svg">
<path d="M9.11084 1.08398H3.88917C2.73542 1.08398 1.79834 2.02648 1.79834 3.17482V10.8069C1.79834 11.7819 2.49709 12.1936 3.35292 11.7223L5.99626 10.2544C6.27792 10.0973 6.73292 10.0973 7.00917 10.2544L9.65251 11.7223C10.5083 12.199 11.2071 11.7873 11.2071 10.8069V3.17482C11.2017 2.02648 10.2646 1.08398 9.11084 1.08398Z" stroke="#6B8E23" stroke-linecap="round" stroke-linejoin="round"/>
<path d="M9.11084 1.08398H3.88917C2.73542 1.08398 1.79834 2.02648 1.79834 3.17482V10.8069C1.79834 11.7819 2.49709 12.1936 3.35292 11.7223L5.99626 10.2544C6.27792 10.0973 6.73292 10.0973 7.00917 10.2544L9.65251 11.7223C10.5083 12.199 11.2071 11.7873 11.2071 10.8069V3.17482C11.2017 2.02648 10.2646 1.08398 9.11084 1.08398Z" stroke="#6B8E23" stroke-width="1.5" stroke-linecap="round" stroke-linejoin="round"/>
</svg>
