<svg width="70" height="70" viewBox="0 0 70 70" fill="none" xmlns="http://www.w3.org/2000/svg">
<path d="M35.4666 31.7038C35.1749 31.6747 34.8249 31.6747 34.5041 31.7038C27.5624 31.4705 22.0499 25.783 22.0499 18.783C22.0207 11.6372 27.8249 5.83301 34.9707 5.83301C42.1166 5.83301 47.9207 11.6372 47.9207 18.783C47.9207 25.783 42.3791 31.4705 35.4666 31.7038Z" stroke="#1A3E32" stroke-width="3" stroke-linecap="round" stroke-linejoin="round"/>
<path d="M34.9707 63.6122C29.6624 63.6122 24.3832 62.2706 20.3582 59.5872C13.2999 54.8622 13.2999 47.1622 20.3582 42.4664C28.379 37.0997 41.5332 37.0997 49.554 42.4664" stroke="#1A3E32" stroke-width="3" stroke-linecap="round" stroke-linejoin="round"/>
<path d="M44.44 48H55.55C59.11 48 60 48.89 60 52.44V58.77C60 62.33 59.11 63.21 55.56 63.21H44.44C40.89 63.22 40 62.33 40 58.78V52.44C40 48.89 40.89 48 44.44 48Z" stroke="#1A3E32" stroke-width="2" stroke-linecap="round" stroke-linejoin="round"/>
<path d="M50 63.2197V67.9997" stroke="#1A3E32" stroke-width="2" stroke-linecap="round" stroke-linejoin="round"/>
<path d="M40 59H60" stroke="#1A3E32" stroke-width="2" stroke-linecap="round" stroke-linejoin="round"/>
<path d="M45.5 68H54.5" stroke="#1A3E32" stroke-width="2" stroke-linecap="round" stroke-linejoin="round"/>
</svg>
