<svg width="70" height="70" viewBox="0 0 70 70" fill="none" xmlns="http://www.w3.org/2000/svg">
<path d="M35.4666 31.7048C35.1749 31.6756 34.8249 31.6756 34.5041 31.7048C27.5624 31.4715 22.0499 25.784 22.0499 18.784C22.0207 11.6382 27.8249 5.83398 34.9707 5.83398C42.1166 5.83398 47.9207 11.6382 47.9207 18.784C47.9207 25.784 42.3791 31.4715 35.4666 31.7048Z" stroke="#1A3E32" stroke-width="3" stroke-linecap="round" stroke-linejoin="round"/>
<path d="M34.9707 63.6122C29.6624 63.6122 24.3832 62.2706 20.3582 59.5872C13.2999 54.8622 13.2999 47.1622 20.3582 42.4664C28.379 37.0997 41.5332 37.0997 49.554 42.4664" stroke="#1A3E32" stroke-width="3" stroke-linecap="round" stroke-linejoin="round"/>
<path d="M40 68H60" stroke="#1A3E32" stroke-width="2" stroke-miterlimit="10" stroke-linecap="round" stroke-linejoin="round"/>
<path d="M40.9502 67.9993L41.0002 55.9693C41.0002 55.3593 41.2902 54.7793 41.7702 54.3993L48.7702 48.9493C49.4902 48.3893 50.5002 48.3893 51.2302 48.9493L58.2302 54.3893C58.7202 54.7693 59.0002 55.3493 59.0002 55.9693V67.9993" stroke="#1A3E32" stroke-width="2" stroke-miterlimit="10" stroke-linejoin="round"/>
<path d="M53.5 57H46.5C45.67 57 45 57.67 45 58.5V68H55V58.5C55 57.67 54.33 57 53.5 57Z" stroke="#1A3E32" stroke-width="2" stroke-miterlimit="10" stroke-linecap="round" stroke-linejoin="round"/>
<path d="M48 62.25V63.75" stroke="#1A3E32" stroke-width="2" stroke-miterlimit="10" stroke-linecap="round" stroke-linejoin="round"/>
<path d="M48.5 53.5H51.5" stroke="#1A3E32" stroke-width="2" stroke-miterlimit="10" stroke-linecap="round" stroke-linejoin="round"/>
</svg>
