<svg width="15" height="15" viewBox="0 0 15 15" fill="none" xmlns="http://www.w3.org/2000/svg">
<path d="M5.625 13.75H9.375C12.5 13.75 13.75 12.5 13.75 9.375V5.625C13.75 2.5 12.5 1.25 9.375 1.25H5.625C2.5 1.25 1.25 2.5 1.25 5.625V9.375C1.25 12.5 2.5 13.75 5.625 13.75Z" stroke="#1A3E32" stroke-linecap="round" stroke-linejoin="round"/>
<path d="M5.625 6.25C6.31536 6.25 6.875 5.69036 6.875 5C6.875 4.30964 6.31536 3.75 5.625 3.75C4.93464 3.75 4.375 4.30964 4.375 5C4.375 5.69036 4.93464 6.25 5.625 6.25Z" stroke="#1A3E32" stroke-linecap="round" stroke-linejoin="round"/>
<path d="M1.66895 11.8434L4.7502 9.77461C5.24395 9.44336 5.95645 9.48086 6.4002 9.86211L6.60645 10.0434C7.09395 10.4621 7.88145 10.4621 8.36895 10.0434L10.9689 7.81211C11.4564 7.39336 12.2439 7.39336 12.7314 7.81211L13.7502 8.68711" stroke="#1A3E32" stroke-linecap="round" stroke-linejoin="round"/>
</svg>
