<svg width="25" height="25" viewBox="0 0 25 25" fill="none" xmlns="http://www.w3.org/2000/svg">
<g clip-path="url(#clip0_1_1198)">
<path d="M12.5 10.2275V15.0685H19.2273C18.9318 16.6253 18.0454 17.9435 16.7159 18.8299L20.7727 21.9776C23.1363 19.7959 24.4999 16.5913 24.4999 12.7845C24.4999 11.8981 24.4204 11.0458 24.2726 10.2277L12.5 10.2275Z" fill="#333333"/>
<path d="M5.49447 14.8789L4.57951 15.5793L1.34082 18.102C3.39763 22.1815 7.61323 24.9997 12.4996 24.9997C15.8745 24.9997 18.704 23.8861 20.7722 21.977L16.7154 18.8293C15.6018 19.5793 14.1813 20.0339 12.4996 20.0339C9.24957 20.0339 6.48829 17.8407 5.49958 14.8861L5.49447 14.8789Z" fill="#333333"/>
<path d="M1.34081 6.89746C0.488585 8.57921 0 10.477 0 12.4997C0 14.5223 0.488585 16.4201 1.34081 18.1019C1.34081 18.1131 5.49997 14.8746 5.49997 14.8746C5.24997 14.1246 5.10221 13.3292 5.10221 12.4995C5.10221 11.6699 5.24997 10.8745 5.49997 10.1245L1.34081 6.89746Z" fill="#333333"/>
<path d="M12.4998 4.97727C14.3407 4.97727 15.9771 5.61362 17.2839 6.84091L20.8634 3.26141C18.6929 1.23871 15.8749 0 12.4998 0C7.61349 0 3.39763 2.80681 1.34082 6.89774L5.49985 10.125C6.48843 7.17043 9.24983 4.97727 12.4998 4.97727Z" fill="#333333"/>
</g>
<defs>
<clipPath id="clip0_1_1198">
<rect width="25" height="25" fill="white"/>
</clipPath>
</defs>
</svg>
