<svg width="67" height="31" viewBox="0 0 67 31" fill="none" xmlns="http://www.w3.org/2000/svg">
<g clip-path="url(#clip0_637_1203)">
<rect x="17" y="8.5" width="50" height="18" rx="9" fill="#1A3E32"/>
<circle cx="15" cy="15.5" r="14" fill="white" stroke="#1A3E32" stroke-width="2"/>
<path d="M13.6375 10.2758L10.2688 12.9008C9.70625 13.3383 9.25 14.2696 9.25 14.9758V19.6071C9.25 21.0571 10.4313 22.2446 11.8813 22.2446H19.1188C20.5688 22.2446 21.75 21.0571 21.75 19.6133V15.0633C21.75 14.3071 21.2438 13.3383 20.625 12.9071L16.7625 10.2008C15.8875 9.58833 14.4813 9.61958 13.6375 10.2758Z" stroke="#1A3E32" stroke-width="2" stroke-linecap="round" stroke-linejoin="round"/>
<path d="M15.5 19.7441V17.8691" stroke="#1A3E32" stroke-width="2" stroke-linecap="round" stroke-linejoin="round"/>
<path d="M33.43 16H34.065L35.87 18.395V16H36.52V19.5H35.885L34.085 17.11V19.5H33.43V16ZM38.4702 16.805C39.4102 16.805 39.8152 17.42 39.7502 18.39H37.7752C37.8602 18.77 38.1502 19 38.5402 19C38.8152 19 39.0702 18.895 39.2602 18.7L39.6102 19.065C39.3452 19.355 38.9552 19.525 38.4852 19.525C37.6552 19.525 37.1102 18.975 37.1102 18.17C37.1102 17.355 37.6702 16.805 38.4702 16.805ZM37.7602 17.955H39.1602C39.1452 17.56 38.8802 17.31 38.4752 17.31C38.0902 17.31 37.8202 17.56 37.7602 17.955ZM39.8114 16.83L40.4814 16.825L41.1364 18.845L41.7714 16.825H42.4264L43.0714 18.845L43.7114 16.825H44.3664L43.3964 19.5H42.7314L42.0914 17.615L41.4564 19.5H40.7914L39.8114 16.83ZM46.3084 17.55C46.0484 17.395 45.7534 17.305 45.5234 17.305C45.3134 17.305 45.1634 17.375 45.1634 17.54C45.1634 17.99 46.5784 17.755 46.5784 18.715C46.5784 19.26 46.0934 19.525 45.5234 19.525C45.1184 19.525 44.6984 19.395 44.4184 19.15L44.6434 18.695C44.8884 18.905 45.2584 19.025 45.5484 19.025C45.7734 19.025 45.9434 18.95 45.9434 18.775C45.9434 18.28 44.5484 18.55 44.5534 17.6C44.5534 17.05 45.0234 16.795 45.5634 16.795C45.9134 16.795 46.2784 16.9 46.5434 17.08L46.3084 17.55ZM49.5054 16.32C49.3154 16.32 49.1604 16.425 49.1604 16.66V16.935H49.8304V17.41H49.1604V19.5H48.5104V17.41H48.1604V16.935H48.5104V16.68C48.5104 16.065 48.9654 15.76 49.4604 15.76C49.6854 15.76 49.9204 15.825 50.1004 15.945L49.8604 16.44C49.7504 16.365 49.6204 16.32 49.5054 16.32ZM51.2339 16.805C52.1739 16.805 52.5789 17.42 52.5139 18.39H50.5389C50.6239 18.77 50.9139 19 51.3039 19C51.5789 19 51.8339 18.895 52.0239 18.7L52.3739 19.065C52.1089 19.355 51.7189 19.525 51.2489 19.525C50.4189 19.525 49.8739 18.975 49.8739 18.17C49.8739 17.355 50.4339 16.805 51.2339 16.805ZM50.5239 17.955H51.9239C51.9089 17.56 51.6439 17.31 51.2389 17.31C50.8539 17.31 50.5839 17.56 50.5239 17.955ZM54.1929 16.805C55.1329 16.805 55.5379 17.42 55.4729 18.39H53.4979C53.5829 18.77 53.8729 19 54.2629 19C54.5379 19 54.7929 18.895 54.9829 18.7L55.3329 19.065C55.0679 19.355 54.6779 19.525 54.2079 19.525C53.3779 19.525 52.8329 18.975 52.8329 18.17C52.8329 17.355 53.3929 16.805 54.1929 16.805ZM53.4829 17.955H54.8829C54.8679 17.56 54.6029 17.31 54.1979 17.31C53.8129 17.31 53.5429 17.56 53.4829 17.955ZM57.9668 15.79H58.6168V19.5H57.9668V19.07C57.7768 19.365 57.4668 19.53 57.0668 19.53C56.3018 19.53 55.7918 18.97 55.7918 18.155C55.7918 17.345 56.3018 16.8 57.0518 16.8C57.4618 16.8 57.7718 16.965 57.9668 17.265V15.79ZM57.2068 18.985C57.6568 18.985 57.9668 18.65 57.9668 18.17C57.9668 17.69 57.6568 17.355 57.2068 17.355C56.7618 17.355 56.4518 17.695 56.4468 18.17C56.4518 18.65 56.7568 18.985 57.2068 18.985Z" fill="white"/>
</g>
<defs>
<clipPath id="clip0_637_1203">
<rect width="67" height="30" fill="white" transform="translate(0 0.5)"/>
</clipPath>
</defs>
</svg>
