<svg width="20" height="20" viewBox="0 0 20 20" fill="none" xmlns="http://www.w3.org/2000/svg">
<path d="M15.3912 14.0244L15.7162 16.6577C15.7995 17.3493 15.0579 17.8327 14.4662 17.4743L10.9745 15.3993C10.5912 15.3993 10.2162 15.3744 9.84955 15.3244C10.4662 14.5994 10.8329 13.6827 10.8329 12.691C10.8329 10.3243 8.78288 8.4077 6.24955 8.4077C5.28288 8.4077 4.39122 8.68268 3.64955 9.16601C3.62455 8.95768 3.61621 8.74934 3.61621 8.53267C3.61621 4.74101 6.90788 1.66602 10.9745 1.66602C15.0412 1.66602 18.3329 4.74101 18.3329 8.53267C18.3329 10.7827 17.1745 12.7744 15.3912 14.0244Z" stroke="#F5F5F5" stroke-width="1.5" stroke-linecap="round" stroke-linejoin="round"/>
<path d="M10.8337 12.6915C10.8337 13.6832 10.467 14.5999 9.85033 15.3249C9.02533 16.3249 7.71699 16.9665 6.25033 16.9665L4.07532 18.2582C3.70866 18.4832 3.24199 18.1748 3.29199 17.7498L3.50032 16.1082C2.38366 15.3332 1.66699 14.0915 1.66699 12.6915C1.66699 11.2248 2.45033 9.93318 3.65033 9.16651C4.392 8.68318 5.28366 8.4082 6.25033 8.4082C8.78366 8.4082 10.8337 10.3248 10.8337 12.6915Z" stroke="#F5F5F5" stroke-width="1.5" stroke-linecap="round" stroke-linejoin="round"/>
</svg>
