<svg width="30" height="35" viewBox="0 0 30 35" fill="none" xmlns="http://www.w3.org/2000/svg">
<circle cx="15" cy="18" r="14.25" stroke="#16730F" stroke-width="1.5"/>
<path d="M15.5121 12.8184C13.4434 12.8184 11.7621 14.4996 11.7621 16.5684V18.3746C11.7621 18.7559 11.5996 19.3371 11.4059 19.6621L10.6871 20.8559C10.2434 21.5934 10.5496 22.4121 11.3621 22.6871C14.0559 23.5871 16.9621 23.5871 19.6559 22.6871C20.4121 22.4371 20.7434 21.5434 20.3309 20.8559L19.6121 19.6621C19.4246 19.3371 19.2621 18.7559 19.2621 18.3746V16.5684C19.2621 14.5059 17.5746 12.8184 15.5121 12.8184Z" stroke="#16730F" stroke-width="1.5" stroke-miterlimit="10" stroke-linecap="round"/>
<path d="M16.6689 13.0004C16.4752 12.9441 16.2752 12.9004 16.0689 12.8754C15.4689 12.8004 14.8939 12.8441 14.3564 13.0004C14.5377 12.5379 14.9877 12.2129 15.5127 12.2129C16.0377 12.2129 16.4877 12.5379 16.6689 13.0004Z" stroke="#16730F" stroke-width="1.5" stroke-miterlimit="10" stroke-linecap="round" stroke-linejoin="round"/>
<path d="M17.3877 22.9121C17.3877 23.9434 16.5439 24.7871 15.5127 24.7871C15.0002 24.7871 14.5252 24.5746 14.1877 24.2371C13.8502 23.8996 13.6377 23.4246 13.6377 22.9121" stroke="#16730F" stroke-width="1.5" stroke-miterlimit="10"/>
</svg>
