<svg width="30" height="30" viewBox="0 0 30 30" fill="none" xmlns="http://www.w3.org/2000/svg">
<circle cx="15" cy="15" r="14.25" stroke="#16730F" stroke-width="1.5"/>
<path d="M15.5 15.5C17.2259 15.5 18.625 14.1009 18.625 12.375C18.625 10.6491 17.2259 9.25 15.5 9.25C13.7741 9.25 12.375 10.6491 12.375 12.375C12.375 14.1009 13.7741 15.5 15.5 15.5Z" stroke="#16730F" stroke-width="1.5" stroke-linecap="round" stroke-linejoin="round"/>
<path d="M10.1309 21.75C10.1309 19.3313 12.5371 17.375 15.4996 17.375" stroke="#16730F" stroke-width="1.5" stroke-linecap="round" stroke-linejoin="round"/>
<path d="M19.375 21.375C20.4796 21.375 21.375 20.4796 21.375 19.375C21.375 18.2704 20.4796 17.375 19.375 17.375C18.2704 17.375 17.375 18.2704 17.375 19.375C17.375 20.4796 18.2704 21.375 19.375 21.375Z" stroke="#16730F" stroke-width="1.5" stroke-linecap="round" stroke-linejoin="round"/>
<path d="M21.75 21.75L21.125 21.125" stroke="#16730F" stroke-width="1.5" stroke-linecap="round" stroke-linejoin="round"/>
</svg>
