<svg width="70" height="70" viewBox="0 0 70 70" fill="none" xmlns="http://www.w3.org/2000/svg">
<path d="M35.4665 31.7038C35.1748 31.6747 34.8248 31.6747 34.504 31.7038C27.5623 31.4705 22.0498 25.783 22.0498 18.783C22.0498 11.6372 27.8248 5.83301 34.9998 5.83301C42.1456 5.83301 47.9498 11.6372 47.9498 18.783C47.9206 25.783 42.4081 31.4705 35.4665 31.7038Z" stroke="#E63357" stroke-width="3" stroke-linecap="round" stroke-linejoin="round"/>
<path d="M20.8836 42.467C13.8253 47.192 13.8253 54.892 20.8836 59.5878C28.9044 64.9545 42.0586 64.9545 50.0794 59.5878C57.1378 54.8628 57.1378 47.1628 50.0794 42.467C42.0878 37.1295 28.9336 37.1295 20.8836 42.467Z" stroke="#E63357" stroke-width="3" stroke-linecap="round" stroke-linejoin="round"/>
</svg>
