<svg width="70" height="70" viewBox="0 0 70 70" fill="none" xmlns="http://www.w3.org/2000/svg">
<path d="M42.1162 55.5622L46.5495 59.9956L55.4162 51.1289" stroke="#E63357" stroke-width="3" stroke-linecap="round" stroke-linejoin="round"/>
<path d="M35.4666 31.7038C35.1749 31.6747 34.8249 31.6747 34.5041 31.7038C27.5624 31.4705 22.0499 25.783 22.0499 18.783C22.0207 11.6372 27.8249 5.83301 34.9707 5.83301C42.1166 5.83301 47.9207 11.6372 47.9207 18.783C47.9207 25.783 42.3791 31.4705 35.4666 31.7038Z" stroke="#E63357" stroke-width="3" stroke-linecap="round" stroke-linejoin="round"/>
<path d="M34.9707 63.6122C29.6624 63.6122 24.3832 62.2706 20.3582 59.5872C13.2999 54.8622 13.2999 47.1622 20.3582 42.4664C28.379 37.0997 41.5332 37.0997 49.554 42.4664" stroke="#E63357" stroke-width="3" stroke-linecap="round" stroke-linejoin="round"/>
</svg>
