<svg width="23" height="23" viewBox="0 0 23 23" fill="none" xmlns="http://www.w3.org/2000/svg">
<circle cx="11.5" cy="11.5" r="11.5" fill="#E09A36"/>
<path d="M7.064 9.176C7.112 7.064 8.408 5.832 10.488 5.832C12.44 5.832 13.736 6.776 13.736 8.536C13.736 11.048 11.24 11.208 11.24 13.304H9.656C9.656 10.744 11.816 10.696 11.816 8.872C11.816 8.024 11.208 7.608 10.296 7.608C9.32 7.608 8.744 8.136 8.696 9.192L7.064 9.176ZM10.424 14.84C11.064 14.84 11.528 15.304 11.528 15.976C11.528 16.648 11.064 17.144 10.424 17.144C9.8 17.144 9.336 16.648 9.336 15.976C9.336 15.304 9.8 14.84 10.424 14.84Z" fill="white"/>
</svg>
