<svg width="30" height="35" viewBox="0 0 30 35" fill="none" xmlns="http://www.w3.org/2000/svg">
<circle cx="15" cy="18" r="14.25" stroke="#16730F" stroke-width="1.5"/>
<path d="M15.5 18.5C17.2259 18.5 18.625 17.1009 18.625 15.375C18.625 13.6491 17.2259 12.25 15.5 12.25C13.7741 12.25 12.375 13.6491 12.375 15.375C12.375 17.1009 13.7741 18.5 15.5 18.5Z" stroke="#16730F" stroke-width="1.5" stroke-linecap="round" stroke-linejoin="round"/>
<path d="M10.1309 24.75C10.1309 22.3313 12.5371 20.375 15.4996 20.375" stroke="#16730F" stroke-width="1.5" stroke-linecap="round" stroke-linejoin="round"/>
<path d="M19.375 24.375C20.4796 24.375 21.375 23.4796 21.375 22.375C21.375 21.2704 20.4796 20.375 19.375 20.375C18.2704 20.375 17.375 21.2704 17.375 22.375C17.375 23.4796 18.2704 24.375 19.375 24.375Z" stroke="#16730F" stroke-width="1.5" stroke-linecap="round" stroke-linejoin="round"/>
<path d="M21.75 24.75L21.125 24.125" stroke="#16730F" stroke-width="1.5" stroke-linecap="round" stroke-linejoin="round"/>
</svg>
