<svg width="11" height="11" viewBox="0 0 11 11" fill="none" xmlns="http://www.w3.org/2000/svg">
<path d="M0.92953 3.02801L8.23064 3.85489C8.30442 3.86319 8.37494 3.89281 8.43404 3.94031C8.49315 3.9878 8.53843 4.05124 8.56464 4.12328C8.59085 4.19532 8.59693 4.27302 8.58216 4.3474C8.5674 4.42177 8.5324 4.48978 8.48121 4.54356L3.41858 9.86894C3.36669 9.92358 3.30029 9.9613 3.22727 9.97761C3.15425 9.99392 3.07768 9.98814 3.00668 9.96096C2.93568 9.93377 2.87323 9.88632 2.82677 9.82426C2.7803 9.76219 2.75178 9.68812 2.74459 9.61086L2.50473 7.02676C2.50178 6.9951 2.50792 6.96347 2.52239 6.93584C2.53685 6.9082 2.559 6.88577 2.58606 6.87135L5.42759 5.35802C5.43944 5.35161 5.4494 5.34211 5.45651 5.33044C5.46361 5.31877 5.46762 5.30532 5.46815 5.29141L5.46654 5.27056C5.46265 5.25268 5.45305 5.23652 5.43928 5.22471C5.42552 5.2129 5.4084 5.20614 5.39071 5.20551L5.37291 5.20681L2.22621 5.87227C2.19623 5.87854 2.16491 5.87554 2.13612 5.86364C2.10734 5.85174 2.08237 5.83147 2.06431 5.80535L0.579086 3.65917C0.534865 3.59536 0.509049 3.52025 0.504714 3.4428C0.500379 3.36535 0.517707 3.28881 0.554635 3.2223C0.591563 3.1558 0.646533 3.10212 0.713 3.06768C0.779466 3.03323 0.854627 3.01946 0.92953 3.02801V3.02801Z" stroke="#F5F5F5" stroke-width="0.7"/>
</svg>
