<svg width="29" height="9" viewBox="0 0 29 9" fill="none" xmlns="http://www.w3.org/2000/svg">
<path d="M5.26 2.84C4.51 2.39 3.7 2.16 3.16 2.16C2.53 2.16 2.12 2.39 2.12 2.82C2.12 4.24 5.88 3.47 5.87 5.98C5.87 7.29 4.73 8.05 3.19 8.05C2.07 8.05 0.98 7.6 0.23 6.93L0.79 5.8C1.51 6.44 2.46 6.83 3.21 6.83C3.96 6.83 4.41 6.55 4.41 6.06C4.41 4.6 0.65 5.43 0.65 2.94C0.65 1.72 1.7 0.94 3.27 0.94C4.2 0.94 5.13 1.24 5.8 1.68L5.26 2.84ZM10.3693 2.6C11.5993 2.6 12.3493 3.39 12.3493 4.66V8H11.0393V5.04C11.0393 4.29 10.5893 3.83 9.8493 3.83C8.9693 3.84 8.4393 4.49 8.4393 5.37V8H7.1393V0.58H8.4393V3.67C8.8193 2.94 9.4893 2.61 10.3693 2.6ZM18.248 8H16.968V7.35C16.598 7.82 15.998 8.06 15.238 8.06C14.088 8.06 13.368 7.35 13.368 6.4C13.368 5.41 14.098 4.8 15.398 4.79H16.958V4.65C16.958 4.03 16.548 3.66 15.748 3.66C15.248 3.66 14.708 3.83 14.158 4.16L13.688 3.26C14.458 2.83 15.058 2.6 16.038 2.6C17.438 2.6 18.228 3.31 18.238 4.5L18.248 8ZM15.548 7.06C16.298 7.06 16.888 6.66 16.958 6.14V5.66H15.608C14.918 5.66 14.598 5.85 14.598 6.32C14.598 6.77 14.958 7.06 15.548 7.06ZM21.0065 3.68C21.3665 2.98 21.9965 2.61 22.8265 2.6V3.86C21.6965 3.79 21.0065 4.45 21.0065 5.42V8H19.7065V2.65H21.0065V3.68ZM25.9697 2.61C27.8497 2.61 28.6597 3.84 28.5297 5.78H24.5797C24.7497 6.54 25.3297 7 26.1097 7C26.6597 7 27.1697 6.79 27.5497 6.4L28.2497 7.13C27.7197 7.71 26.9397 8.05 25.9997 8.05C24.3397 8.05 23.2497 6.95 23.2497 5.34C23.2497 3.71 24.3697 2.61 25.9697 2.61ZM24.5497 4.91H27.3497C27.3197 4.12 26.7897 3.62 25.9797 3.62C25.2097 3.62 24.6697 4.12 24.5497 4.91Z" fill="#556B1F"/>
</svg>
