<svg width="70" height="70" viewBox="0 0 70 70" fill="none" xmlns="http://www.w3.org/2000/svg">
<path d="M26.2497 64.1663H43.7497C58.333 64.1663 64.1663 58.333 64.1663 43.7497V26.2497C64.1663 11.6663 58.333 5.83301 43.7497 5.83301H26.2497C11.6663 5.83301 5.83301 11.6663 5.83301 26.2497V43.7497C5.83301 58.333 11.6663 64.1663 26.2497 64.1663Z" stroke="#16730F" stroke-width="3" stroke-linecap="round" stroke-linejoin="round"/>
<path d="M41.8574 31.8214C41.5657 33.8923 40.3407 35.6423 38.649 36.6923V42.4673C38.649 44.4798 37.0157 46.1131 35.0032 46.1131C32.9907 46.1131 31.3574 44.4798 31.3574 42.4673V36.6923C29.6657 35.6423 28.4407 33.8923 28.149 31.8214C28.0907 31.5006 28.0615 31.1506 28.0615 30.8006C28.0615 26.3673 32.2616 22.9256 36.8699 24.1506C39.2032 24.7631 41.099 26.6589 41.7115 28.9923C41.974 29.9548 42.0032 30.9173 41.8574 31.8214Z" stroke="#16730F" stroke-width="3" stroke-miterlimit="10"/>
<path d="M64.1709 31.8213H41.8584" stroke="#16730F" stroke-width="3" stroke-miterlimit="10"/>
<path d="M28.1455 31.8213H5.83301" stroke="#16730F" stroke-width="3" stroke-miterlimit="10"/>
</svg>
