<svg width="20" height="20" viewBox="0 0 20 20" fill="none" xmlns="http://www.w3.org/2000/svg">
<path d="M9.99967 9.99935C12.3009 9.99935 14.1663 8.13387 14.1663 5.83268C14.1663 3.5315 12.3009 1.66602 9.99967 1.66602C7.69849 1.66602 5.83301 3.5315 5.83301 5.83268C5.83301 8.13387 7.69849 9.99935 9.99967 9.99935Z" stroke="#F5F5F5" stroke-width="1.5" stroke-linecap="round" stroke-linejoin="round"/>
<path d="M2.8418 18.3333C2.8418 15.1083 6.05015 12.5 10.0002 12.5" stroke="#F5F5F5" stroke-width="1.5" stroke-linecap="round" stroke-linejoin="round"/>
<path d="M15.1667 17.8334C16.6394 17.8334 17.8334 16.6394 17.8334 15.1667C17.8334 13.6939 16.6394 12.5 15.1667 12.5C13.6939 12.5 12.5 13.6939 12.5 15.1667C12.5 16.6394 13.6939 17.8334 15.1667 17.8334Z" stroke="#F5F5F5" stroke-width="1.5" stroke-linecap="round" stroke-linejoin="round"/>
<path d="M18.3333 18.3333L17.5 17.5" stroke="#F5F5F5" stroke-width="1.5" stroke-linecap="round" stroke-linejoin="round"/>
</svg>
