<svg width="70" height="70" viewBox="0 0 70 70" fill="none" xmlns="http://www.w3.org/2000/svg">
<path d="M61.4831 25.0248V44.9747C61.4831 48.2413 59.7331 51.2748 56.904 52.9373L39.579 62.9414C36.7498 64.5748 33.2498 64.5748 30.3915 62.9414L13.0665 52.9373C10.2373 51.304 8.4873 48.2705 8.4873 44.9747V25.0248C8.4873 21.7581 10.2373 18.7247 13.0665 17.0622L30.3915 7.05801C33.2206 5.42467 36.7206 5.42467 39.579 7.05801L56.904 17.0622C59.7331 18.7247 61.4831 21.7289 61.4831 25.0248Z" stroke="#16730F" stroke-width="3" stroke-linecap="round" stroke-linejoin="round"/>
<path d="M34.9999 32.0838C38.7532 32.0838 41.7958 29.0411 41.7958 25.2879C41.7958 21.5347 38.7532 18.4922 34.9999 18.4922C31.2467 18.4922 28.2041 21.5347 28.2041 25.2879C28.2041 29.0411 31.2467 32.0838 34.9999 32.0838Z" stroke="#16730F" stroke-width="3" stroke-linecap="round" stroke-linejoin="round"/>
<path d="M46.6663 48.5922C46.6663 43.3422 41.4455 39.084 34.9997 39.084C28.5538 39.084 23.333 43.3422 23.333 48.5922" stroke="#16730F" stroke-width="3" stroke-linecap="round" stroke-linejoin="round"/>
</svg>
