<svg width="368" height="295" viewBox="0 0 368 295" fill="none" xmlns="http://www.w3.org/2000/svg">
<g clip-path="url(#clip0_608_1124)">
<path d="M365.396 237.929C367.098 227.865 368 217.534 368 206.983C368 105.369 285.623 23 184 23C82.3768 23 0 105.369 0 206.983C0 217.534 0.9016 227.865 2.6036 237.929H365.396Z" fill="#1A3E32"/>
<path d="M366.418 235.39C365.783 268.35 284.354 295 184 295C170.338 295 157.026 294.503 144.219 293.574C62.9649 287.622 2.12532 263.861 1.58252 235.39H366.418Z" fill="#1A3E32"/>
<path d="M286.856 235.39C286.295 263.852 225.474 287.622 144.219 293.574C62.9649 287.622 2.12532 263.861 1.58252 235.39H286.856Z" fill="#6B8E23"/>
<path d="M184 266.014C284.757 266.014 366.436 252.105 366.436 234.948C366.436 217.791 284.757 203.883 184 203.883C83.2433 203.883 1.56396 217.791 1.56396 234.948C1.56396 252.105 83.2433 266.014 184 266.014Z" fill="white"/>
</g>
<g clip-path="url(#clip1_608_1124)">
<path d="M70.7945 97.0625L307.39 95.3413L313.982 256L69 253.729L70.7945 97.0625Z" fill="#16730F"/>
<path d="M70.7949 97.0625L190.923 0L307.391 95.3412" fill="#16730F"/>
<g opacity="0.3">
<path d="M70.7949 97.0625L190.923 0L307.391 95.3412" fill="black"/>
</g>
<path d="M69.0001 253.729C68.6981 253.445 87.6385 232.79 111.305 207.611C134.972 182.413 154.392 162.202 154.676 162.486C154.978 162.77 136.038 183.407 112.371 208.622C88.7224 233.802 69.3022 253.995 69.0001 253.729Z" fill="#263238"/>
<path d="M313.982 256C313.68 256.266 295.237 236.037 272.779 210.805C250.321 185.572 232.375 164.9 232.677 164.633C232.979 164.367 251.422 184.596 273.881 209.829C296.339 235.061 314.285 255.734 313.982 256Z" fill="#263238"/>
<g opacity="0.5">
<path d="M307.391 95.3413L188.595 190.132L70.7949 97.0625" fill="black"/>
</g>
<path d="M82.717 105.846L82.3794 37.1036L289.587 32.0464L291.844 107.248L188.577 188.89L82.717 105.846Z" fill="#EBEBEB"/>
<path d="M191.474 164.207C189.519 164.207 187.547 164.101 185.575 163.87C171.894 162.327 159.634 155.548 151.052 144.795C142.47 134.042 138.597 120.591 140.16 106.928C143.358 78.7144 168.944 58.3614 197.195 61.5732C210.876 63.117 223.136 69.8954 231.718 80.6485C240.299 91.4017 244.173 104.852 242.609 118.515C241.063 132.179 234.276 144.422 223.509 152.993C214.27 160.304 203.076 164.207 191.474 164.207ZM191.331 62.9928C166.368 62.9928 144.78 81.7665 141.919 107.106C140.427 120.308 144.158 133.279 152.438 143.677C160.718 154.058 172.551 160.605 185.77 162.096C198.972 163.604 211.978 159.86 222.39 151.591C232.784 143.322 239.34 131.504 240.833 118.302C242.325 105.1 238.594 92.1292 230.314 81.731C222.034 71.3504 210.201 64.8027 196.982 63.3122C195.08 63.0992 193.197 62.9928 191.331 62.9928Z" fill="#16730F"/>
<path d="M156.329 119.864L164.946 109.324L185.095 123.857L217.841 85.2979L227.72 93.9749L185.61 142.453L156.329 119.864Z" fill="#16730F"/>
</g>
<defs>
<clipPath id="clip0_608_1124">
<rect width="368" height="272" fill="white" transform="translate(0 23)"/>
</clipPath>
<clipPath id="clip1_608_1124">
<rect width="245" height="256" fill="white" transform="translate(69)"/>
</clipPath>
</defs>
</svg>
